Coordinates
version=1
nRows=16
nColumns=40
inDegrees=yes

Units are S.I. units (second, meters, Newtons, ...)
Angles are in degrees.

endheader
time	pelvis_tilt	pelvis_list	pelvis_rotation	pelvis_tx	pelvis_ty	pelvis_tz	hip_flexion_r	hip_adduction_r	hip_rotation_r	knee_angle_r	knee_angle_r_beta	ankle_angle_r	subtalar_angle_r	mtp_angle_r	hip_flexion_l	hip_adduction_l	hip_rotation_l	knee_angle_l	knee_angle_l_beta	ankle_angle_l	subtalar_angle_l	mtp_angle_l	lumbar_extension	lumbar_bending	lumbar_rotation	arm_flex_r	arm_add_r	arm_rot_r	elbow_flex_r	pro_sup_r	wrist_flex_r	wrist_dev_r	arm_flex_l	arm_add_l	arm_rot_l	elbow_flex_l	pro_sup_l	wrist_flex_l	wrist_dev_l
     33.03000000	     -6.63147390	     -5.12658171	      3.98333244	      1.06994554	      0.92803431	      0.45389599	     16.17273936	      4.05011417	    -17.56239456	     15.34926942	     15.34926942	      8.18122775	     -3.31029024	     -1.85769571	     33.82623287	     -9.35065986	      5.34517056	     64.37004423	     64.37004423	      5.95774980	    -17.14813812	      8.38004387	    -12.34095573	      4.54955142	      2.21457073	     26.27028908	    -22.94912611	      1.08185047	     87.17000305	     43.89780435	      0.00000000	      0.00000000	     -0.47725897	     -8.21576385	     -7.71640584	     31.40411839	     44.24196769	      0.00000000	      0.00000000
     33.04200000	     -6.80510593	     -5.04267916	      4.17577120	      1.06864825	      0.92843157	      0.45421830	     15.61581096	      4.08154545	    -17.61287064	     14.77467375	     14.77467375	      8.34252388	     -3.18050696	     -1.96693899	     35.05042184	     -9.15323682	      5.11312305	     62.04731224	     62.04731224	      6.42365254	    -17.90558188	      8.81073933	    -12.34627490	      4.41851228	      2.23104636	     27.99750866	    -22.81972836	      1.00454462	     88.61246221	     43.88281010	      0.00000000	      0.00000000	     -1.03367088	     -7.99148560	     -7.52919384	     30.69398678	     44.24254956	      0.00000000	      0.00000000
     33.05400000	     -6.96383635	     -4.98592068	      4.36492266	      1.06739271	      0.92878552	      0.45452695	     15.03047868	      4.15523225	    -17.64534941	     14.16384816	     14.16384816	      8.49000030	     -3.06895365	     -2.08102307	     36.06745203	     -8.99017445	      4.83847675	     59.44669070	     59.44669070	      6.98270141	    -18.34077367	      9.54065024	    -12.37427837	      4.32032656	      2.27675983	     29.69564577	    -22.73564329	      0.92212388	     90.20039840	     43.86695094	      0.00000000	      0.00000000	     -1.62616638	     -7.76273385	     -7.40452031	     30.22208930	     44.25502958	      0.00000000	      0.00000000
     33.06600000	     -7.19062431	     -4.89425340	      4.51880406	      1.06609269	      0.92893791	      0.45475773	     14.60756147	      4.15877472	    -17.62068688	     13.71602079	     13.71602079	      8.69743292	     -3.01896458	     -2.13227654	     36.96540540	     -8.76525070	      4.51556862	     56.60279547	     56.60279547	      7.44906437	    -18.56421941	     10.11055622	    -12.31255809	      4.16842047	      2.54568597	     31.37129228	    -22.83482296	      0.67347356	     91.22851662	     43.85867618	      0.00000000	      0.00000000	     -2.16331219	     -7.49718610	     -7.35051846	     29.99519356	     44.25330757	      0.00000000	      0.00000000
     33.07800000	     -7.25410275	     -4.84907597	      4.73704784	      1.06501320	      0.92930901	      0.45479560	     13.88780033	      4.23918734	    -17.71336410	     13.03898557	     13.03898557	      8.80821872	     -2.81860592	     -2.22764625	     37.51355496	     -8.45375348	      4.39626260	     53.54914098	     53.54914098	      8.08397121	    -18.65137916	     11.31402335	    -12.44547937	      4.14235555	      2.43276404	     32.98553383	    -22.48129467	      0.63342268	     93.03674317	     43.83325009	      0.00000000	      0.00000000	     -2.86085585	     -7.28093956	     -7.31117495	     29.70965108	     44.27257126	      0.00000000	      0.00000000
     33.09000000	     -7.50626530	     -4.76271735	      4.88924198	      1.06373999	      0.92923351	      0.45470544	     13.54761337	      4.20530555	    -17.72290980	     12.68323970	     12.68323970	      9.02138179	     -2.75796488	     -2.31531543	     38.13518822	     -8.05363968	      4.26810015	     50.36954359	     50.36954359	      8.46690306	    -18.58439341	     11.92030159	    -12.34842072	      4.03116963	      2.72028479	     34.53364192	    -22.59332666	      0.40100895	     93.91453247	     43.82861575	      0.00000000	      0.00000000	     -3.31574213	     -7.00864692	     -7.29073202	     29.60013309	     44.27553195	      0.00000000	      0.00000000
     33.10200000	     -7.59076515	     -4.66585065	      5.07225478	      1.06265109	      0.92938540	      0.45435897	     12.95594211	      4.16264025	    -17.82834686	     12.21395998	     12.21395998	      9.20319563	     -2.50774273	     -2.44798172	     38.39134461	     -7.53232378	      4.33219887	     47.00711236	     47.00711236	      8.81951661	    -18.42994278	     12.63184664	    -12.47299376	      3.99867205	      2.71853780	     35.95186389	    -22.29509622	      0.32197758	     95.27446107	     43.80940990	      0.00000000	      0.00000000	     -3.87090338	     -6.80524168	     -7.31137394	     29.46903602	     44.29205813	      0.00000000	      0.00000000
     33.11400000	     -7.76559419	     -4.61134615	      5.22269889	      1.06154694	      0.92920848	      0.45394659	     12.52043024	      4.13547975	    -17.95079270	     11.86260566	     11.86260566	      9.45551279	     -2.23598129	     -2.63267480	     38.66455226	     -7.00259040	      4.55547264	     43.61583570	     43.61583570	      9.13666085	    -18.03286278	     13.01868576	    -12.43481544	      3.97922816	      2.85649788	     37.32104012	    -22.13718735	      0.21195445	     96.38103576	     43.79912088	      0.00000000	      0.00000000	     -4.34542924	     -6.54375758	     -7.35651778	     29.45554486	     44.31230313	      0.00000000	      0.00000000
     33.12600000	     -7.99958180	     -4.58959450	      5.36109448	      1.06045894	      0.92878553	      0.45345426	     12.20511209	      4.12136486	    -18.04900645	     11.60489857	     11.60489857	      9.70466056	     -2.06137906	     -2.77669354	     38.93157904	     -6.52723813	      4.78935819	     40.25734291	     40.25734291	      9.44902601	    -17.19872117	     13.21683195	    -12.29235071	      3.95306744	      3.08005908	     38.64836143	    -22.07553907	      0.07053265	     97.18564536	     43.79240671	      0.00000000	      0.00000000	     -4.69475414	     -6.24411355	     -7.37463571	     29.46051655	     44.32073421	      0.00000000	      0.00000000
     33.13800000	     -8.16978574	     -4.63311764	      5.48107648	      1.05949230	      0.92835199	      0.45285785	     11.84316244	      4.16566142	    -18.18829910	     11.40286132	     11.40286132	      9.98063414	     -1.84993412	     -2.93726562	     39.03953831	     -6.13484170	      5.07907779	     36.92549996	     36.92549996	      9.74015449	    -16.08566123	     13.32453150	    -12.22311496	      4.05462314	      3.27423296	     39.80614746	    -21.89337952	     -0.00715312	     97.96175998	     43.78282814	      0.00000000	      0.00000000	     -5.03983721	     -5.98231782	     -7.40069569	     29.48277167	     44.32889296	      0.00000000	      0.00000000
     33.15000000	     -8.30188633	     -4.68222806	      5.56934951	      1.05867511	      0.92783384	      0.45219051	     11.43196709	      4.21575099	    -18.32032107	     11.20949308	     11.20949308	     10.30497944	     -1.57088642	     -3.10974640	     39.04296102	     -5.81272250	      5.29290788	     33.72860906	     33.72860906	     10.01984555	    -14.72433890	     13.36022395	    -12.17568594	      4.16698317	      3.45037684	     40.87529986	    -21.62790275	     -0.03857080	     98.71874268	     43.77179153	      0.00000000	      0.00000000	     -5.35947003	     -5.74741688	     -7.43540040	     29.54373390	     44.33820573	      0.00000000	      0.00000000
     33.16200000	     -8.25715224	     -4.69628855	      5.61546792	      1.05825846	      0.92744027	      0.45149798	     10.74830287	      4.19313849	    -18.95289645	     10.97756385	     10.97756385	     10.80902343	     -0.24390341	     -3.30908555	     38.67480148	     -5.61833619	      5.17450173	     30.50721752	     30.50721752	      9.55201872	    -13.22419072	     11.24081211	    -12.33275156	      4.22350910	      3.32808019	     41.91781786	    -21.00585977	      0.21005943	     99.80628424	     43.82458599	      0.00000000	      0.00000000	     -6.23983319	     -5.54099474	     -8.10603834	     30.81382559	     44.53067038	      0.00000000	      0.00000000
     33.17400000	     -8.32148951	     -4.79243564	      5.62880231	      1.05780769	      0.92678332	      0.45082937	     10.27148100	      4.31987057	    -18.92300528	     10.83456515	     10.83456515	     11.16840505	     -0.11936023	     -3.39999526	     38.53219609	     -5.48815848	      5.09237878	     27.80618941	     27.80618941	      9.77107098	    -11.74069911	     11.40860411	    -12.28208632	      4.37593524	      3.50477831	     42.77422684	    -20.60463233	      0.26844096	    100.27332801	     43.82660665	      0.00000000	      0.00000000	     -6.44726971	     -5.34425757	     -8.12725141	     30.78842222	     44.54851053	      0.00000000	      0.00000000
     33.18600000	     -8.41858969	     -4.97854586	      5.60996415	      1.05747797	      0.92590673	      0.45013893	      9.85722987	      4.52302507	    -18.94714081	     10.75130282	     10.75130282	     11.55574843	      0.04532131	     -3.52409129	     38.46529076	     -5.47893746	      4.90069216	     25.52768277	     25.52768277	      9.91075696	    -10.53450029	     11.64966127	    -12.14840890	      4.62791400	      3.75833665	     43.51084599	    -20.28515517	      0.31952609	    100.62356516	     43.82515726	      0.00000000	      0.00000000	     -6.59511462	     -5.14664890	     -8.12900584	     30.84902652	     44.55566154	      0.00000000	      0.00000000
     33.19800000	     -8.36208521	     -5.04205012	      5.53226800	      1.05756558	      0.92526918	      0.44949370	      9.19203966	      4.62774097	    -18.96497545	     10.59645104	     10.59645104	     12.00512757	      0.44398439	     -3.58787186	     38.14155474	     -5.48233070	      4.26983104	     23.58283112	     23.58283112	     10.00466459	     -9.40170188	     11.88191726	    -12.17453491	      4.69023280	      3.86608342	     44.08450442	    -19.73254918	      0.49538642	    100.99561031	     43.82326747	      0.00000000	      0.00000000	     -6.83882793	     -5.06644351	     -8.16065448	     30.98743355	     44.57118970	      0.00000000	      0.00000000
     33.21000000	     -8.33089068	     -5.18886221	      5.42991637	      1.05779043	      0.92443230	      0.44881647	      8.57695333	      4.80445155	    -18.99571178	     10.49358284	     10.49358284	     12.48860340	      0.86501752	     -3.60909064	     37.90584553	     -5.58014669	      3.55023656	     22.15449332	     22.15449332	      9.97998317	     -8.66546342	     12.09112910	    -12.12222643	      4.86226129	      3.98081347	     44.54532986	    -19.18776732	      0.70217993	    101.20616323	     43.82686228	      0.00000000	      0.00000000	     -7.07414961	     -4.98745203	     -8.19205352	     31.23543004	     44.58821081	      0.00000000	      0.00000000
